#!OML:ASF H:\Terrain\Patient Classification 1\Terrain2\Thursday\justin.ASF
:FULLY-SPECIFIED
:DEGREES
2902
root 18.9975 24.139 22.5195 -176.659 20.9265 -175.945
lowerback 5.0811 0.537203 5.01317
upperback 2.07908 1.20205 3.13123
thorax -0.678168 0.702693 0.343605
lowerneck -13.9307 -0.641983 -7.30695
upperneck 33.3582 3.63874 0.456782
head 13.5156 1.59776 2.22473
rclavicle -6.4605e-015 -3.18055e-014
rhumerus -29.1448 -2.2414 -76.2328
rradius 34.5721
rwrist -15.2476
rhand -22.5174 11.6842
rfingers 7.12502
rthumb 3.90914 -18.2597
lclavicle -6.4605e-015 -3.18055e-014
lhumerus -34.2967 12.689 79.6289
lradius 25.8642
lwrist -3.05166
lhand -13.9766 23.7439
lfingers 7.12502
lthumb 12.1517 53.3709
rfemur -4.80274 -0.107617 27.2109
rtibia 27.0659
rfoot -19.8877 -6.1744
rtoes 14.9028
lfemur -19.7573 -0.0389187 -13.2658
ltibia 39.9965
lfoot -20.078 -14.8108
ltoes -15.6639
2903
root 19.0094 24.1291 22.5305 -176.773 20.2322 -175.871
lowerback 5.15568 0.498523 5.13594
upperback 2.07655 1.16551 3.12065
thorax -0.720866 0.685614 0.265186
lowerneck -14.0729 -0.576055 -7.17872
upperneck 33.5615 3.74414 0.52182
head 13.6294 1.67325 2.2562
rclavicle -2.3059e-014 2.22639e-014
rhumerus -29.2656 -2.26227 -76.1599
rradius 34.8556
rwrist -15.3438
rhand -22.4422 11.95
rfingers 7.12502
rthumb 3.98177 -17.9925
lclavicle -2.3059e-014 2.22639e-014
lhumerus -34.4058 12.8852 79.5446
lradius 25.5039
lwrist -3.15363
lhand -14.3476 23.5305
lfingers 7.12502
lthumb 11.794 53.1784
rfemur -4.6396 -0.464492 27.4037
rtibia 26.9713
rfoot -19.8035 -6.48514
rtoes 14.949
lfemur -19.5513 1.03773 -13.34
ltibia 40.5434
lfoot -20.086 -13.9439
ltoes -14.5764
2904
root 19.0229 24.124 22.5402 -176.835 19.6723 -175.743
lowerback 5.2188 0.426293 5.0831
upperback 2.04116 1.08728 3.29641
thorax -0.800018 0.648859 0.478604
lowerneck -14.1266 -0.543468 -7.28273
upperneck 33.7141 3.91663 0.431536
head 13.7051 1.73182 2.27364
rclavicle 9.93923e-017 2.54444e-014
rhumerus -29.3469 -2.04025 -75.9395
rradius 35.0387
rwrist -15.4011
rhand -22.3217 12.3866
rfingers 7.12502
rthumb 4.09808 -17.5537
lclavicle 9.93923e-017 2.54444e-014
lhumerus -34.6256 13.6514 79.4231
lradius 25.1951
lwrist -3.40793
lhand -14.1667 23.4874
lfingers 7.12502
lthumb 11.9684 53.1253
rfemur -4.50614 -0.748422 27.637
rtibia 26.8798
rfoot -19.816 -6.79149
rtoes 14.8256
lfemur -19.4326 2.11875 -13.3702
ltibia 41.0814
lfoot -20.2803 -12.7562
ltoes -15.2932
2905
root 19.0388 24.1323 22.5501 -176.924 19.1583 -175.667
lowerback 5.22622 0.454843 5.1104
upperback 2.05361 1.1322 3.33657
thorax -0.790488 0.67375 0.502258
lowerneck -14.2124 -0.681505 -7.25567
upperneck 33.8503 3.76679 0.387962
head 13.7945 1.66817 2.23738
rclavicle -5.1684e-015 -3.18055e-015
rhumerus -29.497 -2.02896 -75.8514
rradius 35.3481
rwrist -15.6848
rhand -22.398 12.6587
rfingers 7.12502
rthumb 4.02441 -17.283
lclavicle -5.1684e-015 -3.18055e-015
lhumerus -34.7728 13.7655 79.3911
lradius 25.1441
lwrist -3.39503
lhand -13.7506 23.5842
lfingers 7.12502
lthumb 12.3696 53.1982
rfemur -4.3849 -1.12848 27.8068
rtibia 26.8182
rfoot -19.8911 -7.05555
rtoes 14.0349
lfemur -19.3569 2.95765 -13.4067
ltibia 41.5766
lfoot -20.1307 -11.778
ltoes -14.2749
2906
root 19.0525 24.1364 22.5541 -177.111 18.6682 -175.769
lowerback 5.1404 0.580791 5.1805
upperback 2.13233 1.28437 3.17741
thorax -0.651572 0.751444 0.293247
lowerneck -14.2449 -0.907581 -7.05741
upperneck 33.8743 3.38321 0.388145
head 13.831 1.52856 2.14683
rclavicle 9.93923e-017 -5.80451e-014
rhumerus -29.6749 -2.33162 -75.8518
rradius 35.7348
rwrist -16.1049
rhand -22.155 12.6075
rfingers 7.12502
rthumb 4.25913 -17.3297
lclavicle 9.93923e-017 -5.80451e-014
lhumerus -34.9056 13.286 79.3985
lradius 25.2792
lwrist -3.30492
lhand -13.375 23.5884
lfingers 7.12502
lthumb 12.7317 53.1803
rfemur -4.20955 -1.51412 27.7493
rtibia 26.7863
rfoot -20.0014 -7.10257
rtoes 13.92
lfemur -19.0882 3.6747 -13.64
ltibia 41.9807
lfoot -20.1481 -10.8397
ltoes -13.5414
2907
root 19.0657 24.1332 22.5573 -177.175 18.2715 -175.953
lowerback 4.96644 0.664689 5.02797
upperback 2.12818 1.36545 3.08816
thorax -0.557327 0.789222 0.285023
lowerneck -14.3409 -0.97812 -6.99974
upperneck 34.0144 3.28181 0.45898
head 13.9175 1.50526 2.15776
rclavicle 5.88403e-014 -5.1684e-014
rhumerus -29.8247 -2.21491 -75.87
rradius 36.0798
rwrist -16.5562
rhand -21.9365 12.3736
rfingers 7.12502
rthumb 4.4701 -17.5593
lclavicle 5.88403e-014 -5.1684e-014
lhumerus -35.1252 13.3588 79.334
lradius 25.2925
lwrist -3.43871
lhand -13.2862 23.2631
lfingers 7.12502
lthumb 12.8173 52.8496
rfemur -4.19105 -1.55064 27.6114
rtibia 26.7992
rfoot -20.1687 -7.09399
rtoes 15.3679
lfemur -18.9046 4.72758 -14.0339
ltibia 42.2958
lfoot -20.6177 -9.31584
ltoes -17.3186
2908
root 19.0764 24.1266 22.5675 -177.117 17.7757 -175.899
lowerback 4.8442 0.630359 5.01509
upperback 2.07907 1.31422 3.14383
thorax -0.543025 0.763543 0.353678
lowerneck -14.5542 -0.905072 -7.08868
upperneck 34.319 3.47081 0.578437
head 14.0897 1.59698 2.26799
rclavicle 2.60408e-014 2.14687e-014
rhumerus -29.9254 -1.94079 -75.8753
rradius 36.2964
rwrist -16.9144
rhand -22.1099 12.3113
rfingers 7.12502
rthumb 4.30268 -17.625
lclavicle 2.60408e-014 2.14687e-014
lhumerus -35.265 13.7255 79.3087
lradius 25.1982
lwrist -3.50852
lhand -13.3862 23.432
lfingers 7.12502
lthumb 12.7209 53.0246
rfemur -4.28238 -1.58635 27.7599
rtibia 26.86
rfoot -20.4515 -7.20353
rtoes 17.0722
lfemur -18.8442 5.82889 -14.1505
ltibia 42.5654
lfoot -20.6941 -8.29095
ltoes -19.5307
2909
root 19.0867 24.123 22.5788 -177.142 17.1287 -175.924
lowerback 4.75876 0.511847 4.94516
upperback 2.04517 1.15065 3.19352
thorax -0.537711 0.68174 0.452888
lowerneck -14.4291 -0.849544 -7.25896
upperneck 34.2562 3.5824 0.640907
head 14.0253 1.64048 2.33665
rclavicle 3.08116e-015 2.46493e-014
rhumerus -29.9348 -2.03684 -75.8401
rradius 36.3093
rwrist -16.9919
rhand -22.0227 12.5292
rfingers 7.12502
rthumb 4.38685 -17.4054
lclavicle 3.08116e-015 2.46493e-014
lhumerus -35.3736 13.9047 79.3516
lradius 25.0541
lwrist -3.36648
lhand -13.3965 23.713
lfingers 7.12502
lthumb 12.711 53.3061
rfemur -4.34146 -1.87533 27.8508
rtibia 26.9192
rfoot -20.7988 -7.48579
rtoes 17.8107
lfemur -18.7536 6.49516 -14.2866
ltibia 42.7838
lfoot -20.2706 -8.073
ltoes -17.9543
2910
root 19.0986 24.1277 22.5827 -177.203 16.5501 -176.118
lowerback 4.60124 0.501112 4.8507
upperback 2.02817 1.10861 3.05913
thorax -0.46728 0.656916 0.371433
lowerneck -14.3325 -0.92888 -7.27975
upperneck 34.1906 3.39637 0.809193
head 13.9766 1.58431 2.37533
rclavicle 1.70955e-014 -2.14687e-014
rhumerus -29.9392 -2.64153 -75.9269
rradius 36.2399
rwrist -16.7074
rhand -22.005 12.3854
rfingers 7.12502
rthumb 4.40396 -17.5488
lclavicle 1.70955e-014 -2.14687e-014
lhumerus -35.3627 13.8701 79.2745
lradius 24.7308
lwrist -3.51311
lhand -13.4483 23.3752
lfingers 7.12502
lthumb 12.661 52.9715
rfemur -4.35871 -2.19615 27.7396
rtibia 26.9487
rfoot -20.997 -7.78661
rtoes 17.6451
lfemur -18.6675 7.08037 -14.6178
ltibia 42.9462
lfoot -20.0415 -7.5323
ltoes -16.9673
2911
root 19.1087 24.1288 22.5829 -177.34 16.0093 -176.343
lowerback 4.43655 0.573035 4.86557
upperback 2.07723 1.17318 2.79629
thorax -0.316558 0.687095 0.093088
lowerneck -14.4805 -1.0627 -6.99765
upperneck 34.2953 3.12413 0.857378
head 14.069 1.50821 2.31097
rclavicle -7.95139e-015 2.54444e-014
rhumerus -30.0327 -3.22527 -76.1592
rradius 36.3005
rwrist -16.5386
rhand -22.3784 12.1874
rfingers 7.12502
rthumb 4.04337 -17.754
lclavicle -7.95139e-015 2.54444e-014
lhumerus -35.1801 13.739 79.1223
lradius 24.3832
lwrist -3.72807
lhand -13.6002 23.027
lfingers 7.12502
lthumb 12.5146 52.6323
rfemur -4.2872 -2.612 27.5571
rtibia 26.9832
rfoot -20.9824 -7.9992
rtoes 16.602
lfemur -18.4705 7.77469 -14.9893
ltibia 43.0155
lfoot -20.0082 -6.81276
ltoes -16.331
2912
root 19.1163 24.1182 22.5856 -177.446 15.4246 -176.451
lowerback 4.32622 0.535308 4.9278
upperback 2.10246 1.10804 2.64891
thorax -0.226722 0.654581 -0.0881356
lowerneck -14.5816 -1.09605 -6.77476
upperneck 34.3194 3.04966 0.77445
head 14.1092 1.49314 2.23027
rclavicle -1.0635e-014 1.51076e-014
rhumerus -30.1698 -3.30604 -76.3768
rradius 36.3869
rwrist -16.7374
rhand -22.4238 12.2748
rfingers 7.12502
rthumb 3.99948 -17.6674
lclavicle -1.0635e-014 1.51076e-014
lhumerus -35.1708 13.77 79.0374
lradius 24.304
lwrist -3.63933
lhand -13.4907 23.2854
lfingers 7.12502
lthumb 12.6202 52.8841
rfemur -4.24893 -2.95272 27.5142
rtibia 27.0305
rfoot -20.7888 -8.35314
rtoes 15.0952
lfemur -18.188 8.29109 -15.2186
ltibia 42.9741
lfoot -19.9026 -6.42827
ltoes -15.3617
2913
root 19.1247 24.1128 22.5938 -177.395 14.8287 -176.427
lowerback 4.23418 0.456268 4.99138
upperback 2.03283 1.00001 2.65214
thorax -0.249927 0.598905 -0.115048
lowerneck -14.6259 -1.14955 -6.9271
upperneck 34.3626 3.00212 0.865834
head 14.1382 1.46775 2.28947
rclavicle -2.76311e-014 -2.78299e-014
rhumerus -30.2368 -3.1925 -76.4607
rradius 36.3116
rwrist -17.0941
rhand -21.9121 12.4317
rfingers 7.12502
rthumb 4.49365 -17.5007
lclavicle -2.76311e-014 -2.78299e-014
lhumerus -35.2886 13.9912 79.0195
lradius 24.2505
lwrist -3.71605
lhand -13.315 23.3998
lfingers 7.12502
lthumb 12.7895 52.9881
rfemur -4.35217 -3.01563 27.6495
rtibia 27.1096
rfoot -20.7678 -8.74062
rtoes 14.984
lfemur -17.9931 8.85249 -15.2671
ltibia 42.836
lfoot -19.6641 -6.53504
ltoes -14.2331
2914
root 19.1333 24.1198 22.601 -177.36 14.3557 -176.441
lowerback 4.22453 0.454833 4.93986
upperback 1.93061 0.998698 2.69089
thorax -0.351481 0.593722 -0.0474261
lowerneck -14.6195 -1.27339 -7.1829
upperneck 34.4192 2.89553 0.939203
head 14.1664 1.40484 2.35062
rclavicle 6.16232e-014 -7.95139e-015
rhumerus -30.3119 -3.05676 -76.4745
rradius 36.2254
rwrist -17.4174
rhand -21.4089 12.7208
rfingers 7.12502
rthumb 4.97955 -17.2007
lclavicle 6.16232e-014 -7.95139e-015
lhumerus -35.4687 14.2054 79.0497
lradius 24.1103
lwrist -3.99492
lhand -13.4115 22.7753
lfingers 7.12502
lthumb 12.6965 52.3694
rfemur -4.43218 -3.03425 27.7092
rtibia 27.2171
rfoot -21.0112 -8.90231
rtoes 15.8818
lfemur -17.7219 9.66375 -15.2989
ltibia 42.5904
lfoot -19.4867 -6.99478
ltoes -13.0895
